<?xml version="1.0" encoding="UTF-8"?>
<!-- Created with Inkscape (http://www.inkscape.org/) -->
<svg width="534" height="248" version="1.1" viewBox="0 0 266.67 124" xmlns="http://www.w3.org/2000/svg">
 <g transform="translate(.99977 .60044)" fill="#333" stroke="#333">
  <path d="m205.58 37.719-122.54 58.256h122.54zm-5.1976 8.0244 0.1561 46.145-100.54 0.93656z" stroke-width="1.2419"/>
  <path d="m177.94 21.643-119.97 0.55983 0.42111 56.835zm-17.327 4.2273-97.804 45.949 0.1561-44.779z" stroke-width="1.2683"/>
 </g>
 <g fill="#112b00ff" stroke="#112b00ff">
  <path d="m205.58 37.719-122.54 58.256h122.54zm-5.1976 8.0244 0.1561 46.145-100.54 0.93656z" stroke-width="1.2419"/>
  <path d="m177.94 21.643-119.97 0.55983 0.42111 56.835zm-17.327 4.2273-97.804 45.949 0.1561-44.779z" stroke-width="1.2683"/>
 </g>
 <g transform="translate(1.5997 .39975)" fill="#333">
  <path d="m128.86 51.106 5.0725-2.816s3.4718 8.6395 8.0982 10.764c0 0 0.14141-4.1522-1.2156-6.8363-1.357-2.6841-4.598-4.893-4.598-4.893l5.3702-2.9119s-0.12521 2.57 0.8525 3.6679c0.97773 1.0979 4.0965 5.5801 6.8531 6.7951 0 0-0.72528-6.4357-1.6959-8.2257-0.97062-1.7901-3.2258-3.6922-3.2258-3.6922l4.6719-2.3257s0.58724 0.59939 1.2531 3.1775c0.66588 2.5781 2.9126 14.963 2.9126 14.963l-3.9757 1.9372s-3.4174-4.2875-4.1147-3.8002c-0.69726 0.48734 0.53561 5.6425 0.53561 5.6425l-4.1745 2.0341zm41.367-1.253q0.20529 0.38074-0.21637 0.59022l-4.4894 2.2304q-0.39683 0.19716-0.60212-0.18357-0.26944-0.49973-0.73134-2.2313-0.44994-1.7677-0.899-2.6006-2.2324-4.1406-3.6958-3.4135-0.42166 0.20949-0.64999 0.83584-0.52768 1.5293 0.69118 3.79 1.2445 2.3082 3.8797 4.0462 0.13856 0.08201 0.18988 0.1772 0.20529 0.38074-0.19156 0.5779l-4.911 2.4399q-0.42167 0.20949-0.62694-0.17125-0.32075-0.59491-1.4242-3.5163-1.1162-2.9452-1.886-4.373-2.9638-5.4969-4.8112-7.1738-0.10089-0.07056-0.12656-0.11815-0.21813-0.40454 0.20354-0.61403l4.2414-2.1072q0.39684-0.19716 0.61496 0.20737 0.077 0.14278 0.0172 0.32337-0.1257 0.81672 1.4721 4.2468l3.3484-1.6636q-0.33182-0.49889-1.5524-2.0044-1.1564-1.3866-1.4002-1.8387-0.21811-0.40454 0.20354-0.61403l4.4398-2.2058q0.39686-0.19717 0.61498 0.20737 0.0385 0.07139 0.053 0.215 0.14975 2.6108 3.0494 7.9887 2.8739 5.3304 5.0182 6.7994 0.12572 0.05822 0.17705 0.15341zm-15.424-11.284 8.2e-4 0.05989q0.0119-0.03616-8.2e-4 -0.05989zm27.379 5.3446q0.23011 0.3684-0.19156 0.5779l-10.343 5.1386q-0.39685 0.19717-0.60213-0.18357-0.0386-0.07139-0.0649-0.17891-0.30286-2.8364-2.9972-7.8337-2.9381-5.4494-5.0336-7.0029-0.13858-0.08201-0.17706-0.1534-0.21811-0.40454 0.20355-0.61403l9.6732-4.8059q0.29765-0.14788 0.56365 0.11219 0.49351 0.44874 1.3788 2.0907 0.91095 1.6895 1.0239 2.5989 0.0676 0.35864-0.20526 0.49419-0.29765 0.14787-0.53799-0.0646-2.6788-2.1689-4.0926-1.4665-2.5547 1.2692-0.6627 5.1867 1.0519-2.4234 2.1194-2.8933l0.0993-0.04928q1.1914-0.53161 1.8851-0.0616 0.45416 0.31742 1.1214 1.5548 0.75697 1.404 0.90324 2.0252 0.0803 0.38244-0.21723 0.53031-0.22322 0.1109-0.48751-0.02933-1.2342-0.71432-2.1271-0.2707-1.1409 0.56685-1.1717 1.9096-0.0343 1.1031 0.60731 2.2929 1.514 2.808 3.5726 1.7852 1.2154-0.60382 0.52254-1.8888-0.23095-0.42833-0.70992-0.73344-0.45417-0.31743-0.47983-0.36502-0.14113-0.26176 0.0924-0.52862 0.46698-0.53371 1.5583-1.0759 0.59527-0.29575 1.206-0.38795 0.87241-0.13172 1.1281 0.28429 0.11463 0.15424 0.25661 0.47593 0.18046 0.39308 0.23177 0.48826 0.1283 0.23796 1.916 2.9703zm11.955-5.9396q0.23011 0.3684-0.19156 0.5779l-10.343 5.1386q-0.39684 0.19717-0.60211-0.18357-0.0386-0.07139-0.0651-0.1789-0.30285-2.8364-2.9972-7.8337-2.9381-5.4494-5.0336-7.0029-0.13857-0.08201-0.17706-0.15341-0.2181-0.40454 0.20356-0.61402l9.6732-4.8059q0.29763-0.14788 0.56365 0.11219 0.49351 0.44874 1.3788 2.0907 0.91094 1.6895 1.0239 2.5989 0.0676 0.35864-0.20527 0.49419-0.29763 0.14787-0.53797-0.0646-2.6788-2.1689-4.0926-1.4665-2.5547 1.2692-0.6627 5.1867 1.0519-2.4234 2.1193-2.8933l0.0993-0.0493q1.1914-0.53161 1.8851-0.0616 0.45416 0.31742 1.1213 1.5548 0.75696 1.404 0.90325 2.0252 0.0803 0.38244-0.21724 0.53032-0.22321 0.1109-0.48752-0.02933-1.2342-0.71432-2.1271-0.2707-1.1409 0.56685-1.1717 1.9096-0.0343 1.1031 0.60732 2.2929 1.514 2.808 3.5726 1.7852 1.2153-0.60382 0.52251-1.8888-0.23094-0.42833-0.70991-0.73344-0.45416-0.31743-0.47983-0.36502-0.14112-0.26176 0.0923-0.52862 0.46697-0.53371 1.5583-1.0759 0.59527-0.29575 1.206-0.38795 0.87239-0.13172 1.1281 0.28429 0.11464 0.15424 0.25663 0.47593 0.18045 0.39308 0.23176 0.48826 0.12831 0.23796 1.916 2.9703zm8.0052-11.399q0.077 0.14278 0.1822 0.5129 0.44821 1.6479 1.1282 2.9091 0.17961 0.33315 0.56277 0.92723 0.40799 0.58174 0.57479 0.89109 0.62867 1.166-1.926 2.4353l-7.1433 3.549q-0.39685 0.19717-0.61496-0.20737-0.64152-1.1898-1.7535-3.8355-1.0872-2.658-1.7672-3.9192-2.9894-5.5445-4.7745-7.2222-0.0761-0.08284-0.10184-0.13045-0.21811-0.40454 0.17873-0.6017l4.0429-2.0086q0.39686-0.19717 0.61496 0.20737 0.83397 1.5468 2.229 4.7758 1.3951 3.2291 2.2419 4.7996 2.1939 4.0692 4.1286 3.108 0.64487-0.32039 0.78512-0.99348 0.14026-0.67309-0.20616-1.3156-0.62866-1.166-1.1247-0.91956-0.14883 0.07393-0.30789 0.30382-0.15908 0.22989-0.28309 0.29151-0.54567 0.2711-1.4181-1.347-0.78262-1.4516-0.36526-1.9606 0.15994-0.16997 0.70561-0.44107 1.8106-0.89956 3.9061-0.22092 0.35154 0.12706 0.50549 0.41261z"/>
  <path transform="rotate(-26.533)" d="m34.784 106.66q0 2.4505-0.46808 4.2127-0.11014 0.413-0.13767 0.46807-0.19274 0.30287-0.41301 0.30287l-0.0826-0.0275q-1.3216-0.11013-1.5694-0.11013-2.0375 0-3.1113 0.74341-1.0463 0.74342-1.4593 1.3492-0.52314 0.77095-0.52314 1.8998 0 2.01 1.5144 2.9461 0.24781 0.11013 0.74342 0.35794 0.27534 0.1652 0.27534 0.41301 0 0.46807-0.44054 0.46807h-7.1037q-0.46808 0-0.46808-0.46807 0-0.0826 0.05507-0.19274 1.0738-2.7259 1.0738-8.4804 0-6.3603-0.88108-8.7282-0.05507-0.11013-0.05507-0.19273 0-0.44055 0.46808-0.44055h10.738q0.19274 0 0.38548 0.19274 0.0826 0.11014 0.38547 0.66081 1.0738 2.1752 1.0738 4.6257zm-4.6532-0.93615q0-1.8998-1.652-1.8998-1.1289 0-1.7071 1.4042-0.13767 0.35794-0.13767 2.3404 0 1.2941 0.0826 2.836 3.4142-2.0926 3.4142-4.6808zm10.628-4.1026q0 0.0551-0.02753 0.1652-0.77095 2.3954-0.77095 8.7282 0 1.5694 0.35794 4.6532 0.38548 3.0563 0.38548 4.0475 0 0.44054-0.44054 0.44054h-4.7634q-0.44054 0-0.44054-0.44054 0-0.0826 0.02753-0.19274 0.96369-2.6983 0.96369-8.508 0-6.3603-0.93615-8.7007-0.05507-0.11013-0.05507-0.19273 0-0.46808 0.46808-0.46808h4.7909q0.44054 0 0.44054 0.46808zm13.602 6.5806q0 0.68834-0.30287 1.4042-0.35794 0.79848-0.88108 1.0738-0.13767 0.0826-0.2478 0.0826-0.1652 0-0.33041-0.13767-0.60574-0.49561-1.9549-0.49561-1.0463 0-2.01 0.82602-0.96369 0.79848-1.3492 1.597-0.38548 0.79849-0.38548 2.0926v0.0826q0 2.423 1.6796 2.423 0.60575 0 0.99122-0.63328 0.30287-0.52314 0.30287-1.184 0 0.35794-0.13767-2.0375v-0.0551q-0.02753-0.27534 0.30287-0.41301 0.74342-0.30287 2.2302-0.30287 1.5694 0 1.8723 0.19274 0.19274 0.13767 0.19274 0.38547 0 0.49561-0.05507 1.4868t-0.05507 1.4868q0 0.0275 0 3.3041 0 0.46808-0.44054 0.46808h-11.316q-0.55068 0-0.55068-1.5694 0-1.2115 0.30287-2.6157 0.57821-2.7534 2.065-4.7634 1.2666-1.7346 3.7721-3.5794 0.82602-0.60574 1.0188-0.82601 0.49561-0.52315 0.49561-1.1564 0-1.7071-1.6245-1.7071-0.55068 0-1.0738 0.33041-0.60574 0.41301-0.57821 0.90862 0.02753 0.96368 0.02753 0.74341 0 0.35794-0.41301 0.46808-0.41301 0.11013-1.3767 0.11013-0.82602 0-1.1564-0.38547-0.27534-0.30287-0.33041-1.1564-0.0826-1.0463-0.0826-1.597 0-1.7346 1.3216-1.7346h9.2514q0.44054 0 0.44054 0.46808 0 0.30287-0.13767 0.96369-0.13767 0.66081-0.13767 0.99122 0 0.3304 0.22027 1.3492 0.44054 1.9274 0.44054 3.1113zm13.464 0q0 0.68834-0.30287 1.4042-0.35794 0.79848-0.88108 1.0738-0.13767 0.0826-0.2478 0.0826-0.1652 0-0.33041-0.13767-0.60575-0.49561-1.9549-0.49561-1.0463 0-2.01 0.82602-0.96369 0.79848-1.3492 1.597-0.38548 0.79849-0.38548 2.0926v0.0826q0 2.423 1.6796 2.423 0.60575 0 0.99122-0.63328 0.30287-0.52314 0.30287-1.184 0 0.35794-0.13767-2.0375v-0.0551q-0.02753-0.27534 0.30287-0.41301 0.74342-0.30287 2.2302-0.30287 1.5694 0 1.8723 0.19274 0.19274 0.13767 0.19274 0.38547 0 0.49561-0.05507 1.4868t-0.05507 1.4868q0 0.0275 0 3.3041 0 0.46808-0.44054 0.46808h-11.316q-0.55068 0-0.55068-1.5694 0-1.2115 0.30287-2.6157 0.57821-2.7534 2.065-4.7634 1.2666-1.7346 3.7721-3.5794 0.82602-0.60574 1.0188-0.82601 0.49561-0.52315 0.49561-1.1564 0-1.7071-1.6245-1.7071-0.55068 0-1.0738 0.33041-0.60575 0.41301-0.57821 0.90862 0.02753 0.96368 0.02753 0.74341 0 0.35794-0.41301 0.46808-0.41301 0.11013-1.3767 0.11013-0.82602 0-1.1564-0.38547-0.27534-0.30287-0.33041-1.1564-0.0826-1.0463-0.0826-1.597 0-1.7346 1.3216-1.7346h9.2514q0.44054 0 0.44054 0.46808 0 0.30287-0.13767 0.96369-0.13767 0.66081-0.13767 0.99122 0 0.3304 0.22027 1.3492 0.44054 1.9274 0.44054 3.1113zm15.447 11.014q0 0.44054-0.46808 0.44054h-6.3053q-0.44054 0-0.44054-0.44054 0-0.13767 0.0826-0.27534 1.184-1.8723 1.184-5.0112 0-4.433-1.8998-4.433-1.3216 0-2.01 1.9824-0.52314 1.4318-0.52314 3.0287 0 2.9186 1.3216 4.3504 0.19274 0.1652 0.19274 0.35794 0 0.44054-0.44054 0.44054h-3.9924q-0.35794 0-0.71588-0.63328-0.46808-0.79848-0.46808-2.0375 0-1.2666 0.82602-4.4605 1.4593-5.727 1.4593-8.1776 0-0.82602-0.60575-2.5606-0.05507-0.11014-0.05507-0.19274 0-0.44054 0.46808-0.44054h9.4166q0.44054 0 0.44054 0.44054 0 0.11014-0.05507 0.24781-0.49561 1.1014-0.49561 3.7446 0 2.5882 0.49561 5.8096 0.90862 5.6169 2.4781 7.5168 0.11014 0.13767 0.11014 0.30288zm-6.7183-12.858q0-0.11014-0.11014-0.68835-0.35794-1.7346-1.1289-1.7346-1.4318 0-1.652 3.5794 1.4042-0.49561 2.3954-0.74342 0.49561-0.13767 0.49561-0.413z" stroke-width="2.2945" aria-label="PIZZA"/>
  <circle cx="129.22" cy="60.95" r="1.8284"/>
 </g>
 <g fill="#800000">
  <path d="m128.86 51.106 5.0725-2.816s3.4718 8.6395 8.0982 10.764c0 0 0.14141-4.1522-1.2156-6.8363-1.357-2.6841-4.598-4.893-4.598-4.893l5.3702-2.9119s-0.12521 2.57 0.8525 3.6679c0.97773 1.0979 4.0965 5.5801 6.8531 6.7951 0 0-0.72528-6.4357-1.6959-8.2257-0.97062-1.7901-3.2258-3.6922-3.2258-3.6922l4.6719-2.3257s0.58724 0.59939 1.2531 3.1775c0.66588 2.5781 2.9126 14.963 2.9126 14.963l-3.9757 1.9372s-3.4174-4.2875-4.1147-3.8002c-0.69726 0.48734 0.53561 5.6425 0.53561 5.6425l-4.1745 2.0341zm41.367-1.253q0.20529 0.38074-0.21637 0.59022l-4.4894 2.2304q-0.39683 0.19716-0.60212-0.18357-0.26944-0.49973-0.73134-2.2313-0.44994-1.7677-0.899-2.6006-2.2324-4.1406-3.6958-3.4135-0.42166 0.20949-0.64999 0.83584-0.52768 1.5293 0.69118 3.79 1.2445 2.3082 3.8797 4.0462 0.13856 0.08201 0.18988 0.1772 0.20529 0.38074-0.19156 0.5779l-4.911 2.4399q-0.42167 0.20949-0.62694-0.17125-0.32075-0.59491-1.4242-3.5163-1.1162-2.9452-1.886-4.373-2.9638-5.4969-4.8112-7.1738-0.10089-0.07056-0.12656-0.11815-0.21813-0.40454 0.20354-0.61403l4.2414-2.1072q0.39684-0.19716 0.61496 0.20737 0.077 0.14278 0.0172 0.32337-0.1257 0.81672 1.4721 4.2468l3.3484-1.6636q-0.33182-0.49889-1.5524-2.0044-1.1564-1.3866-1.4002-1.8387-0.21811-0.40454 0.20354-0.61403l4.4398-2.2058q0.39686-0.19717 0.61498 0.20737 0.0385 0.07139 0.053 0.215 0.14975 2.6108 3.0494 7.9887 2.8739 5.3304 5.0182 6.7994 0.12572 0.05822 0.17705 0.15341zm-15.424-11.284 8.2e-4 0.05989q0.0119-0.03616-8.2e-4 -0.05989zm27.379 5.3446q0.23011 0.3684-0.19156 0.5779l-10.343 5.1386q-0.39685 0.19717-0.60213-0.18357-0.0386-0.07139-0.0649-0.17891-0.30286-2.8364-2.9972-7.8337-2.9381-5.4494-5.0336-7.0029-0.13858-0.08201-0.17706-0.1534-0.21811-0.40454 0.20355-0.61403l9.6732-4.8059q0.29765-0.14788 0.56365 0.11219 0.49351 0.44874 1.3788 2.0907 0.91095 1.6895 1.0239 2.5989 0.0676 0.35864-0.20526 0.49419-0.29765 0.14787-0.53799-0.0646-2.6788-2.1689-4.0926-1.4665-2.5547 1.2692-0.6627 5.1867 1.0519-2.4234 2.1194-2.8933l0.0993-0.04928q1.1914-0.53161 1.8851-0.0616 0.45416 0.31742 1.1214 1.5548 0.75697 1.404 0.90324 2.0252 0.0803 0.38244-0.21723 0.53031-0.22322 0.1109-0.48751-0.02933-1.2342-0.71432-2.1271-0.2707-1.1409 0.56685-1.1717 1.9096-0.0343 1.1031 0.60731 2.2929 1.514 2.808 3.5726 1.7852 1.2154-0.60382 0.52254-1.8888-0.23095-0.42833-0.70992-0.73344-0.45417-0.31743-0.47983-0.36502-0.14113-0.26176 0.0924-0.52862 0.46698-0.53371 1.5583-1.0759 0.59527-0.29575 1.206-0.38795 0.87241-0.13172 1.1281 0.28429 0.11463 0.15424 0.25661 0.47593 0.18046 0.39308 0.23177 0.48826 0.1283 0.23796 1.916 2.9703zm11.955-5.9396q0.23011 0.3684-0.19156 0.5779l-10.343 5.1386q-0.39684 0.19717-0.60211-0.18357-0.0386-0.07139-0.0651-0.1789-0.30285-2.8364-2.9972-7.8337-2.9381-5.4494-5.0336-7.0029-0.13857-0.08201-0.17706-0.15341-0.2181-0.40454 0.20356-0.61402l9.6732-4.8059q0.29763-0.14788 0.56365 0.11219 0.49351 0.44874 1.3788 2.0907 0.91094 1.6895 1.0239 2.5989 0.0676 0.35864-0.20527 0.49419-0.29763 0.14787-0.53797-0.0646-2.6788-2.1689-4.0926-1.4665-2.5547 1.2692-0.6627 5.1867 1.0519-2.4234 2.1193-2.8933l0.0993-0.0493q1.1914-0.53161 1.8851-0.0616 0.45416 0.31742 1.1213 1.5548 0.75696 1.404 0.90325 2.0252 0.0803 0.38244-0.21724 0.53032-0.22321 0.1109-0.48752-0.02933-1.2342-0.71432-2.1271-0.2707-1.1409 0.56685-1.1717 1.9096-0.0343 1.1031 0.60732 2.2929 1.514 2.808 3.5726 1.7852 1.2153-0.60382 0.52251-1.8888-0.23094-0.42833-0.70991-0.73344-0.45416-0.31743-0.47983-0.36502-0.14112-0.26176 0.0923-0.52862 0.46697-0.53371 1.5583-1.0759 0.59527-0.29575 1.206-0.38795 0.87239-0.13172 1.1281 0.28429 0.11464 0.15424 0.25663 0.47593 0.18045 0.39308 0.23176 0.48826 0.12831 0.23796 1.916 2.9703zm8.0052-11.399q0.077 0.14278 0.1822 0.5129 0.44821 1.6479 1.1282 2.9091 0.17961 0.33315 0.56277 0.92723 0.40799 0.58174 0.57479 0.89109 0.62867 1.166-1.926 2.4353l-7.1433 3.549q-0.39685 0.19717-0.61496-0.20737-0.64152-1.1898-1.7535-3.8355-1.0872-2.658-1.7672-3.9192-2.9894-5.5445-4.7745-7.2222-0.0761-0.08284-0.10184-0.13045-0.21811-0.40454 0.17873-0.6017l4.0429-2.0086q0.39686-0.19717 0.61496 0.20737 0.83397 1.5468 2.229 4.7758 1.3951 3.2291 2.2419 4.7996 2.1939 4.0692 4.1286 3.108 0.64487-0.32039 0.78512-0.99348 0.14026-0.67309-0.20616-1.3156-0.62866-1.166-1.1247-0.91956-0.14883 0.07393-0.30789 0.30382-0.15908 0.22989-0.28309 0.29151-0.54567 0.2711-1.4181-1.347-0.78262-1.4516-0.36526-1.9606 0.15994-0.16997 0.70561-0.44107 1.8106-0.89956 3.9061-0.22092 0.35154 0.12706 0.50549 0.41261z"/>
  <path transform="rotate(-26.533)" d="m34.784 106.66q0 2.4505-0.46808 4.2127-0.11014 0.413-0.13767 0.46807-0.19274 0.30287-0.41301 0.30287l-0.0826-0.0275q-1.3216-0.11013-1.5694-0.11013-2.0375 0-3.1113 0.74341-1.0463 0.74342-1.4593 1.3492-0.52314 0.77095-0.52314 1.8998 0 2.01 1.5144 2.9461 0.24781 0.11013 0.74342 0.35794 0.27534 0.1652 0.27534 0.41301 0 0.46807-0.44054 0.46807h-7.1037q-0.46808 0-0.46808-0.46807 0-0.0826 0.05507-0.19274 1.0738-2.7259 1.0738-8.4804 0-6.3603-0.88108-8.7282-0.05507-0.11013-0.05507-0.19273 0-0.44055 0.46808-0.44055h10.738q0.19274 0 0.38548 0.19274 0.0826 0.11014 0.38547 0.66081 1.0738 2.1752 1.0738 4.6257zm-4.6532-0.93615q0-1.8998-1.652-1.8998-1.1289 0-1.7071 1.4042-0.13767 0.35794-0.13767 2.3404 0 1.2941 0.0826 2.836 3.4142-2.0926 3.4142-4.6808zm10.628-4.1026q0 0.0551-0.02753 0.1652-0.77095 2.3954-0.77095 8.7282 0 1.5694 0.35794 4.6532 0.38548 3.0563 0.38548 4.0475 0 0.44054-0.44054 0.44054h-4.7634q-0.44054 0-0.44054-0.44054 0-0.0826 0.02753-0.19274 0.96369-2.6983 0.96369-8.508 0-6.3603-0.93615-8.7007-0.05507-0.11013-0.05507-0.19273 0-0.46808 0.46808-0.46808h4.7909q0.44054 0 0.44054 0.46808zm13.602 6.5806q0 0.68834-0.30287 1.4042-0.35794 0.79848-0.88108 1.0738-0.13767 0.0826-0.2478 0.0826-0.1652 0-0.33041-0.13767-0.60574-0.49561-1.9549-0.49561-1.0463 0-2.01 0.82602-0.96369 0.79848-1.3492 1.597-0.38548 0.79849-0.38548 2.0926v0.0826q0 2.423 1.6796 2.423 0.60575 0 0.99122-0.63328 0.30287-0.52314 0.30287-1.184 0 0.35794-0.13767-2.0375v-0.0551q-0.02753-0.27534 0.30287-0.41301 0.74342-0.30287 2.2302-0.30287 1.5694 0 1.8723 0.19274 0.19274 0.13767 0.19274 0.38547 0 0.49561-0.05507 1.4868t-0.05507 1.4868q0 0.0275 0 3.3041 0 0.46808-0.44054 0.46808h-11.316q-0.55068 0-0.55068-1.5694 0-1.2115 0.30287-2.6157 0.57821-2.7534 2.065-4.7634 1.2666-1.7346 3.7721-3.5794 0.82602-0.60574 1.0188-0.82601 0.49561-0.52315 0.49561-1.1564 0-1.7071-1.6245-1.7071-0.55068 0-1.0738 0.33041-0.60574 0.41301-0.57821 0.90862 0.02753 0.96368 0.02753 0.74341 0 0.35794-0.41301 0.46808-0.41301 0.11013-1.3767 0.11013-0.82602 0-1.1564-0.38547-0.27534-0.30287-0.33041-1.1564-0.0826-1.0463-0.0826-1.597 0-1.7346 1.3216-1.7346h9.2514q0.44054 0 0.44054 0.46808 0 0.30287-0.13767 0.96369-0.13767 0.66081-0.13767 0.99122 0 0.3304 0.22027 1.3492 0.44054 1.9274 0.44054 3.1113zm13.464 0q0 0.68834-0.30287 1.4042-0.35794 0.79848-0.88108 1.0738-0.13767 0.0826-0.2478 0.0826-0.1652 0-0.33041-0.13767-0.60575-0.49561-1.9549-0.49561-1.0463 0-2.01 0.82602-0.96369 0.79848-1.3492 1.597-0.38548 0.79849-0.38548 2.0926v0.0826q0 2.423 1.6796 2.423 0.60575 0 0.99122-0.63328 0.30287-0.52314 0.30287-1.184 0 0.35794-0.13767-2.0375v-0.0551q-0.02753-0.27534 0.30287-0.41301 0.74342-0.30287 2.2302-0.30287 1.5694 0 1.8723 0.19274 0.19274 0.13767 0.19274 0.38547 0 0.49561-0.05507 1.4868t-0.05507 1.4868q0 0.0275 0 3.3041 0 0.46808-0.44054 0.46808h-11.316q-0.55068 0-0.55068-1.5694 0-1.2115 0.30287-2.6157 0.57821-2.7534 2.065-4.7634 1.2666-1.7346 3.7721-3.5794 0.82602-0.60574 1.0188-0.82601 0.49561-0.52315 0.49561-1.1564 0-1.7071-1.6245-1.7071-0.55068 0-1.0738 0.33041-0.60575 0.41301-0.57821 0.90862 0.02753 0.96368 0.02753 0.74341 0 0.35794-0.41301 0.46808-0.41301 0.11013-1.3767 0.11013-0.82602 0-1.1564-0.38547-0.27534-0.30287-0.33041-1.1564-0.0826-1.0463-0.0826-1.597 0-1.7346 1.3216-1.7346h9.2514q0.44054 0 0.44054 0.46808 0 0.30287-0.13767 0.96369-0.13767 0.66081-0.13767 0.99122 0 0.3304 0.22027 1.3492 0.44054 1.9274 0.44054 3.1113zm15.447 11.014q0 0.44054-0.46808 0.44054h-6.3053q-0.44054 0-0.44054-0.44054 0-0.13767 0.0826-0.27534 1.184-1.8723 1.184-5.0112 0-4.433-1.8998-4.433-1.3216 0-2.01 1.9824-0.52314 1.4318-0.52314 3.0287 0 2.9186 1.3216 4.3504 0.19274 0.1652 0.19274 0.35794 0 0.44054-0.44054 0.44054h-3.9924q-0.35794 0-0.71588-0.63328-0.46808-0.79848-0.46808-2.0375 0-1.2666 0.82602-4.4605 1.4593-5.727 1.4593-8.1776 0-0.82602-0.60575-2.5606-0.05507-0.11014-0.05507-0.19274 0-0.44054 0.46808-0.44054h9.4166q0.44054 0 0.44054 0.44054 0 0.11014-0.05507 0.24781-0.49561 1.1014-0.49561 3.7446 0 2.5882 0.49561 5.8096 0.90862 5.6169 2.4781 7.5168 0.11014 0.13767 0.11014 0.30288zm-6.7183-12.858q0-0.11014-0.11014-0.68835-0.35794-1.7346-1.1289-1.7346-1.4318 0-1.652 3.5794 1.4042-0.49561 2.3954-0.74342 0.49561-0.13767 0.49561-0.413z" stroke-width="2.2945" aria-label="PIZZA"/>
  <circle cx="129.22" cy="60.95" r="1.8284"/>
 </g>
</svg>
