<?xml version="1.0" encoding="UTF-8"?>
<!-- Created with Inkscape (http://www.inkscape.org/) -->
<svg width="152.09" height="81.074" version="1.1" viewBox="0 0 152.09 81.074" xmlns="http://www.w3.org/2000/svg">
 <g transform="translate(-56.35 -19.2)" fill="#999">
  <g transform="translate(-61.033 -66.028)">
   <path d="m190.88 117.87 5.0725-2.816s3.4718 8.6395 8.0982 10.764c0 0 0.14142-4.1522-1.2156-6.8363-1.357-2.6841-4.598-4.893-4.598-4.893l5.3702-2.9119s-0.12522 2.57 0.85249 3.6679c0.97773 1.0979 4.0965 5.5801 6.8531 6.7951 0 0-0.72528-6.4356-1.6959-8.2257s-3.2258-3.6922-3.2258-3.6922l4.6719-2.3257s0.58724 0.59938 1.2531 3.1775c0.66588 2.5781 2.9126 14.963 2.9126 14.963l-3.9757 1.9372s-3.4174-4.2875-4.1147-3.8002 0.53561 5.6426 0.53561 5.6426l-4.1745 2.0341zm41.367-1.253q0.20529 0.38074-0.21637 0.59022l-4.4894 2.2304q-0.39683 0.19716-0.60212-0.18358-0.26944-0.49973-0.73134-2.2313-0.44994-1.7677-0.899-2.6006-2.2324-4.1406-3.6958-3.4135-0.42166 0.20948-0.64999 0.83583-0.52768 1.5293 0.69118 3.79 1.2445 2.3082 3.8797 4.0462 0.13856 0.082 0.18988 0.1772 0.20529 0.38074-0.19156 0.5779l-4.911 2.4399q-0.42167 0.20948-0.62694-0.17125-0.32075-0.59492-1.4242-3.5163-1.1162-2.9452-1.886-4.373-2.9638-5.497-4.8112-7.1738-0.10089-0.0706-0.12656-0.11815-0.21813-0.40454 0.20354-0.61403l4.2414-2.1072q0.39684-0.19717 0.61496 0.20737 0.077 0.14278 0.0172 0.32337-0.1257 0.81673 1.4721 4.2468l3.3484-1.6636q-0.33182-0.49888-1.5524-2.0044-1.1564-1.3866-1.4002-1.8387-0.21811-0.40454 0.20354-0.61403l4.4398-2.2058q0.39686-0.19717 0.61498 0.20737 0.0385 0.0714 0.053 0.21501 0.14975 2.6108 3.0494 7.9887 2.8739 5.3304 5.0182 6.7994 0.12572 0.0582 0.17705 0.1534zm-15.424-11.284 8.3e-4 0.0599q0.0119-0.0362-8.3e-4 -0.0599zm27.379 5.3446q0.23011 0.36841-0.19156 0.5779l-10.343 5.1386q-0.39685 0.19716-0.60213-0.18358-0.0386-0.0714-0.0649-0.1789-0.30286-2.8364-2.9972-7.8337-2.9381-5.4494-5.0336-7.0029-0.13857-0.082-0.17706-0.15341-0.21811-0.40454 0.20355-0.61402l9.6732-4.8059q0.29765-0.14788 0.56365 0.11219 0.49351 0.44874 1.3788 2.0907 0.91096 1.6895 1.0239 2.5989 0.0676 0.35864-0.20526 0.4942-0.29765 0.14787-0.53799-0.0646-2.6788-2.1689-4.0926-1.4665-2.5547 1.2692-0.6627 5.1867 1.0519-2.4234 2.1194-2.8933l0.0993-0.0493q1.1914-0.53162 1.8851-0.0616 0.45416 0.31742 1.1214 1.5548 0.75697 1.404 0.90325 2.0252 0.0803 0.38243-0.21723 0.53031-0.22322 0.1109-0.48751-0.0293-1.2342-0.71432-2.1271-0.2707-1.1409 0.56685-1.1717 1.9096-0.0343 1.1031 0.60731 2.2929 1.514 2.808 3.5726 1.7852 1.2154-0.60382 0.52254-1.8888-0.23095-0.42833-0.70992-0.73343-0.45417-0.31744-0.47983-0.36502-0.14113-0.26176 0.0924-0.52862 0.46698-0.53372 1.5583-1.0759 0.59527-0.29575 1.206-0.38795 0.87241-0.13172 1.1281 0.28429 0.11463 0.15424 0.25661 0.47592 0.18046 0.39308 0.23177 0.48827 0.1283 0.23796 1.916 2.9703zm11.955-5.9396q0.23011 0.3684-0.19156 0.5779l-10.343 5.1386q-0.39684 0.19716-0.60212-0.18357-0.0386-0.0714-0.0651-0.17891-0.30285-2.8364-2.9972-7.8337-2.9381-5.4494-5.0336-7.0029-0.13857-0.08201-0.17706-0.15341-0.2181-0.40454 0.20356-0.61402l9.6732-4.8059q0.29763-0.14788 0.56365 0.11219 0.49351 0.44874 1.3788 2.0907 0.91094 1.6895 1.0239 2.5989 0.0676 0.35864-0.20527 0.49419-0.29763 0.14787-0.53797-0.0646-2.6788-2.1689-4.0926-1.4665-2.5547 1.2692-0.6627 5.1867 1.0519-2.4234 2.1193-2.8933l0.0993-0.0493q1.1914-0.53161 1.8851-0.0616 0.45416 0.31742 1.1213 1.5548 0.75696 1.404 0.90325 2.0252 0.0803 0.38244-0.21724 0.53032-0.22321 0.1109-0.48752-0.02933-1.2342-0.71432-2.1271-0.2707-1.1409 0.56685-1.1717 1.9096-0.0343 1.1031 0.60732 2.2929 1.514 2.808 3.5726 1.7852 1.2153-0.60382 0.52251-1.8888-0.23094-0.42834-0.70991-0.73344-0.45416-0.31743-0.47983-0.36502-0.14112-0.26176 0.0923-0.52862 0.46697-0.53371 1.5583-1.0759 0.59527-0.29574 1.206-0.38795 0.87239-0.13172 1.1281 0.28429 0.11464 0.15424 0.25663 0.47593 0.18045 0.39308 0.23176 0.48826 0.12831 0.23796 1.916 2.9703zm8.0052-11.399q0.077 0.14278 0.18219 0.5129 0.44821 1.6479 1.1282 2.9091 0.17961 0.33315 0.56277 0.92723 0.408 0.58174 0.57479 0.89109 0.62867 1.166-1.926 2.4353l-7.1433 3.549q-0.39685 0.19716-0.61496-0.20738-0.64153-1.1898-1.7535-3.8355-1.0872-2.658-1.7672-3.9192-2.9894-5.5445-4.7745-7.2222-0.0761-0.08284-0.10184-0.13045-0.21811-0.40454 0.17873-0.6017l4.0429-2.0086q0.39686-0.19717 0.61496 0.20737 0.83397 1.5468 2.229 4.7758 1.3951 3.2291 2.2419 4.7996 2.1939 4.0692 4.1286 3.108 0.64487-0.32039 0.78512-0.99348 0.14026-0.67309-0.20616-1.3156-0.62866-1.166-1.1247-0.91956-0.14883 0.07393-0.30789 0.30382-0.15908 0.22989-0.28309 0.29151-0.54567 0.2711-1.4181-1.347-0.78262-1.4516-0.36526-1.9606 0.15994-0.16997 0.70561-0.44107 1.8106-0.89956 3.9061-0.22092 0.35154 0.12706 0.50549 0.41261z"/>
   <path d="m140.79 146.65q1.0947 2.1924 1.4631 3.9781 0.086 0.4187 0.0859 0.48027-0.0371 0.35707-0.23421 0.45547l-0.0862 0.0123q-1.2316 0.49186-1.4533 0.60256-1.8229 0.91018-2.4515 2.055-0.60399 1.1325-0.70291 1.859-0.12365 0.92344 0.38064 1.9334 0.89789 1.7983 2.671 1.9594 0.2709-0.0122 0.82501-0.0119 0.32014 0.0248 0.43084 0.24652 0.20909 0.41877-0.18505 0.61556l-6.3556 3.1734q-0.41878 0.2091-0.62787-0.20967-0.0369-0.0739-0.0368-0.19704-0.25696-2.9185-2.8276-8.0669-2.8413-5.6904-4.6873-7.4154-0.0985-0.0739-0.13536-0.14784-0.1968-0.39414 0.22198-0.60324l9.6072-4.7969q0.17243-0.0861 0.43097 2.5e-4 0.1231 0.0616 0.64007 0.41901 1.9324 1.4664 3.0271 3.6588zm-4.5813 1.2411q-0.84869-1.6998-2.3267-0.96176-1.01 0.5043-0.90001 2.0189 0.0367 0.38174 0.92231 2.1554 0.57809 1.1578 1.3408 2.5004 2.1198-3.3974 0.96364-5.7129zm7.676-8.4182q0.0246 0.0493 0.0492 0.1601 0.38034 2.4876 3.2093 8.1533 0.70109 1.4041 2.3989 4.0032 1.7102 2.5622 2.153 3.449 0.19679 0.39414-0.19735 0.59094l-4.2617 2.1279q-0.39414 0.1968-0.59094-0.19734-0.0369-0.0739-0.0615-0.18474-0.34319-2.8446-2.9384-8.0424-2.8413-5.6904-4.7243-7.3661-0.0985-0.0739-0.13537-0.14783-0.2091-0.41878 0.20968-0.62788l4.2863-2.1402q0.39414-0.1968 0.60324 0.22198zm15.109-0.1886q0.30749 0.61584 0.35632 1.3916 0.0365 0.87427-0.3086 1.3543-0.0863 0.1354-0.1848 0.1846-0.14781 0.0738-0.35711 0.0244-0.76334-0.17282-1.9704 0.42988-0.93609 0.46739-1.4293 1.6369-0.50549 1.1449-0.49367 2.0314 0.0118 0.88659 0.58991 2.0444l0.0369 0.0739q1.0824 2.1678 2.585 1.4175 0.54195-0.2706 0.60393-1.0094 0.0373-0.60333-0.25792-1.1945 0.1599 0.32024-1.0334-1.7614l-0.0246-0.0493q-0.14763-0.23404 0.0865-0.50481 0.52982-0.60306 1.86-1.2672 1.4041-0.70109 1.7612-0.66395 0.23394 0.0371 0.34464 0.25877 0.22139 0.44341 0.61492 1.3548 0.39352 0.91142 0.61492 1.3548 0.0123 0.0246 1.476 2.9561 0.2091 0.41878-0.18504 0.61558l-10.125 5.0552q-0.49268 0.24599-1.1938-1.1582-0.54119-1.0839-0.89751-2.4755-0.71267-2.7217-0.28032-5.1842 0.35827-2.1177 1.7759-4.8875 0.46843-0.91093 0.54247-1.1941 0.20971-0.68945-0.0732-1.256-0.76259-1.5273-2.216-0.80161-0.49268 0.24599-0.81313 0.7753-0.35745 0.64011-0.11142 1.0712 0.45512 0.84988 0.35673 0.65281 0.15989 0.32024-0.16041 0.60328-0.32032 0.28303-1.1825 0.71352-0.73902 0.36899-1.2068 0.17172-0.38164-0.14797-0.81221-0.88703-0.54128-0.89919-0.78728-1.3919-0.77489-1.5519 0.40754-2.1423l8.277-4.1327q0.39414-0.1968 0.60324 0.22198 0.13529 0.27097 0.30732 0.92369 0.17203 0.65271 0.31963 0.94832 0.14759 0.2956 0.79976 1.1087 1.2551 1.5276 1.784 2.5868zm12.046-6.0146q0.30749 0.61584 0.35632 1.3916 0.0365 0.87428-0.3086 1.3543-0.0863 0.1354-0.18481 0.1846-0.1478 0.0738-0.3571 0.0244-0.76335-0.17281-1.9704 0.42988-0.93609 0.46739-1.4293 1.6369-0.50549 1.1449-0.49368 2.0314 0.0118 0.88659 0.58992 2.0444l0.0369 0.0739q1.0824 2.1678 2.585 1.4175 0.54194-0.2706 0.60392-1.0094 0.0373-0.60334-0.25791-1.1946 0.15989 0.32024-1.0334-1.7614l-0.0246-0.0493q-0.14763-0.23404 0.0865-0.5048 0.52982-0.60307 1.86-1.2673 1.4041-0.70109 1.7612-0.66395 0.23394 0.0371 0.34463 0.25878 0.2214 0.44341 0.61492 1.3548 0.39353 0.91142 0.61492 1.3548 0.0123 0.0246 1.476 2.9561 0.2091 0.41878-0.18504 0.61558l-10.125 5.0552q-0.49268 0.24599-1.1938-1.1582-0.5412-1.0839-0.89751-2.4755-0.71267-2.7217-0.28032-5.1842 0.35827-2.1177 1.7759-4.8875 0.46842-0.91094 0.54246-1.1941 0.20972-0.68945-0.0732-1.256-0.76258-1.5273-2.216-0.80161-0.49267 0.246-0.81312 0.7753-0.35745 0.64011-0.11142 1.0712 0.45512 0.84988 0.35673 0.65281 0.15989 0.32024-0.16041 0.60328-0.32032 0.28303-1.1825 0.71352-0.73902 0.36899-1.2068 0.17172-0.38164-0.14797-0.81221-0.88703-0.54129-0.89918-0.78728-1.3919-0.77489-1.552 0.40754-2.1423l8.277-4.1327q0.39414-0.1968 0.60324 0.22198 0.13529 0.27097 0.30732 0.92369 0.17203 0.65271 0.31963 0.94832 0.14759 0.2956 0.79976 1.1087 1.2551 1.5276 1.784 2.5868zm18.74 2.9534q0.1968 0.39414-0.22198 0.60323l-5.6412 2.8167q-0.39414 0.19679-0.59094-0.19735-0.0615-0.12317-0.0491-0.28323 0.22287-2.204-1.1793-5.0123-1.9803-3.9661-3.68-3.1174-1.1824 0.59039-0.91269 2.6715 0.17154 1.5147 0.88493 2.9434 1.3038 2.6112 3.1258 3.3018 0.24623 0.0617 0.33233 0.23414 0.1968 0.39414-0.19734 0.59094l-3.5719 1.7835q-0.32024 0.1599-0.92338-0.24678-0.77547-0.50529-1.329-1.6138-0.56579-1.1332-1.2536-4.3597-1.2528-5.7757-2.3474-7.9682-0.36899-0.73902-1.6858-2.0204-0.0985-0.0739-0.13537-0.14784-0.1968-0.39414 0.22198-0.60324l8.4248-4.2065q0.39414-0.1968 0.59094 0.19734 0.0492 0.0985 0.0614 0.24631 0.0486 1.2068 1.2294 3.5716 1.1562 2.3156 3.0387 4.9764 3.3221 4.6194 5.5749 5.6181 0.16004 0.074 0.23384 0.22178zm-11.755-8.5029q-0.0492-0.0985-0.40603-0.56665-1.0951-1.392-1.7849-1.0476-1.281 0.63959 0.12094 3.9404 1.0349-1.0707 1.8111-1.7352 0.38191-0.34456 0.25891-0.5909z" stroke-width="2.2945" aria-label="PIZZA"/>
   <circle cx="191.24" cy="127.71" r="1.8284"/>
  </g>
  <path d="m207.41 39.734-122.54 58.256h122.54zm-5.1976 8.0244 0.1561 46.145-100.54 0.93657z"/>
  <path d="m179.67 23.308-119.97 0.55983 0.42111 56.835zm-17.327 4.2273-97.804 45.949 0.1561-44.779z"/>
 </g>
 <g transform="translate(-56.35,-19.2)">
  <path d="m177.94 21.643-119.97 0.55983 0.42111 56.835zm-17.327 4.2273-97.804 45.949 0.1561-44.779z" fill="#250" stroke="#2d5016" stroke-width="1.2683"/>
  <path d="m205.58 37.719-122.54 58.256h122.54zm-5.1976 8.0244 0.1561 46.145-100.54 0.93656z" fill="#2d5016" stroke="#2d5016" stroke-width="1.2419"/>
  <g fill="#a00">
   <path d="m128.86 51.106 5.0725-2.816s3.4718 8.6395 8.0982 10.764c0 0 0.14141-4.1522-1.2156-6.8363-1.357-2.6841-4.598-4.893-4.598-4.893l5.3702-2.9119s-0.12521 2.57 0.8525 3.6679c0.97773 1.0979 4.0965 5.5801 6.8531 6.7951 0 0-0.72528-6.4357-1.6959-8.2257-0.97062-1.7901-3.2258-3.6922-3.2258-3.6922l4.6719-2.3257s0.58724 0.59939 1.2531 3.1775c0.66588 2.5781 2.9126 14.963 2.9126 14.963l-3.9757 1.9372s-3.4174-4.2875-4.1147-3.8002c-0.69726 0.48734 0.53561 5.6425 0.53561 5.6425l-4.1745 2.0341zm41.367-1.253q0.20529 0.38074-0.21637 0.59022l-4.4894 2.2304q-0.39683 0.19716-0.60212-0.18357-0.26944-0.49973-0.73134-2.2313-0.44994-1.7677-0.899-2.6006-2.2324-4.1406-3.6958-3.4135-0.42166 0.20949-0.64999 0.83584-0.52768 1.5293 0.69118 3.79 1.2445 2.3082 3.8797 4.0462 0.13856 0.08201 0.18988 0.1772 0.20529 0.38074-0.19156 0.5779l-4.911 2.4399q-0.42167 0.20949-0.62694-0.17125-0.32075-0.59491-1.4242-3.5163-1.1162-2.9452-1.886-4.373-2.9638-5.4969-4.8112-7.1738-0.10089-0.07056-0.12656-0.11815-0.21813-0.40454 0.20354-0.61403l4.2414-2.1072q0.39684-0.19716 0.61496 0.20737 0.077 0.14278 0.0172 0.32337-0.1257 0.81672 1.4721 4.2468l3.3484-1.6636q-0.33182-0.49889-1.5524-2.0044-1.1564-1.3866-1.4002-1.8387-0.21811-0.40454 0.20354-0.61403l4.4398-2.2058q0.39686-0.19717 0.61498 0.20737 0.0385 0.07139 0.053 0.215 0.14975 2.6108 3.0494 7.9887 2.8739 5.3304 5.0182 6.7994 0.12572 0.05822 0.17705 0.15341zm-15.424-11.284 8.2e-4 0.05989q0.0119-0.03616-8.2e-4 -0.05989zm27.379 5.3446q0.23011 0.3684-0.19156 0.5779l-10.343 5.1386q-0.39685 0.19717-0.60213-0.18357-0.0386-0.07139-0.0649-0.17891-0.30286-2.8364-2.9972-7.8337-2.9381-5.4494-5.0336-7.0029-0.13858-0.08201-0.17706-0.1534-0.21811-0.40454 0.20355-0.61403l9.6732-4.8059q0.29765-0.14788 0.56365 0.11219 0.49351 0.44874 1.3788 2.0907 0.91095 1.6895 1.0239 2.5989 0.0676 0.35864-0.20526 0.49419-0.29765 0.14787-0.53799-0.0646-2.6788-2.1689-4.0926-1.4665-2.5547 1.2692-0.6627 5.1867 1.0519-2.4234 2.1194-2.8933l0.0993-0.04928q1.1914-0.53161 1.8851-0.0616 0.45416 0.31742 1.1214 1.5548 0.75697 1.404 0.90324 2.0252 0.0803 0.38244-0.21723 0.53031-0.22322 0.1109-0.48751-0.02933-1.2342-0.71432-2.1271-0.2707-1.1409 0.56685-1.1717 1.9096-0.0343 1.1031 0.60731 2.2929 1.514 2.808 3.5726 1.7852 1.2154-0.60382 0.52254-1.8888-0.23095-0.42833-0.70992-0.73344-0.45417-0.31743-0.47983-0.36502-0.14113-0.26176 0.0924-0.52862 0.46698-0.53371 1.5583-1.0759 0.59527-0.29575 1.206-0.38795 0.87241-0.13172 1.1281 0.28429 0.11463 0.15424 0.25661 0.47593 0.18046 0.39308 0.23177 0.48826 0.1283 0.23796 1.916 2.9703zm11.955-5.9396q0.23011 0.3684-0.19156 0.5779l-10.343 5.1386q-0.39684 0.19717-0.60211-0.18357-0.0386-0.07139-0.0651-0.1789-0.30285-2.8364-2.9972-7.8337-2.9381-5.4494-5.0336-7.0029-0.13857-0.08201-0.17706-0.15341-0.2181-0.40454 0.20356-0.61402l9.6732-4.8059q0.29763-0.14788 0.56365 0.11219 0.49351 0.44874 1.3788 2.0907 0.91094 1.6895 1.0239 2.5989 0.0676 0.35864-0.20527 0.49419-0.29763 0.14787-0.53797-0.0646-2.6788-2.1689-4.0926-1.4665-2.5547 1.2692-0.6627 5.1867 1.0519-2.4234 2.1193-2.8933l0.0993-0.0493q1.1914-0.53161 1.8851-0.0616 0.45416 0.31742 1.1213 1.5548 0.75696 1.404 0.90325 2.0252 0.0803 0.38244-0.21724 0.53032-0.22321 0.1109-0.48752-0.02933-1.2342-0.71432-2.1271-0.2707-1.1409 0.56685-1.1717 1.9096-0.0343 1.1031 0.60732 2.2929 1.514 2.808 3.5726 1.7852 1.2153-0.60382 0.52251-1.8888-0.23094-0.42833-0.70991-0.73344-0.45416-0.31743-0.47983-0.36502-0.14112-0.26176 0.0923-0.52862 0.46697-0.53371 1.5583-1.0759 0.59527-0.29575 1.206-0.38795 0.87239-0.13172 1.1281 0.28429 0.11464 0.15424 0.25663 0.47593 0.18045 0.39308 0.23176 0.48826 0.12831 0.23796 1.916 2.9703zm8.0052-11.399q0.077 0.14278 0.1822 0.5129 0.44821 1.6479 1.1282 2.9091 0.17961 0.33315 0.56277 0.92723 0.40799 0.58174 0.57479 0.89109 0.62867 1.166-1.926 2.4353l-7.1433 3.549q-0.39685 0.19717-0.61496-0.20737-0.64152-1.1898-1.7535-3.8355-1.0872-2.658-1.7672-3.9192-2.9894-5.5445-4.7745-7.2222-0.0761-0.08284-0.10184-0.13045-0.21811-0.40454 0.17873-0.6017l4.0429-2.0086q0.39686-0.19717 0.61496 0.20737 0.83397 1.5468 2.229 4.7758 1.3951 3.2291 2.2419 4.7996 2.1939 4.0692 4.1286 3.108 0.64487-0.32039 0.78512-0.99348 0.14026-0.67309-0.20616-1.3156-0.62866-1.166-1.1247-0.91956-0.14883 0.07393-0.30789 0.30382-0.15908 0.22989-0.28309 0.29151-0.54567 0.2711-1.4181-1.347-0.78262-1.4516-0.36526-1.9606 0.15994-0.16997 0.70561-0.44107 1.8106-0.89956 3.9061-0.22092 0.35154 0.12706 0.50549 0.41261z"/>
   <path transform="rotate(-26.533)" d="m34.784 106.66q0 2.4505-0.46808 4.2127-0.11014 0.413-0.13767 0.46807-0.19274 0.30287-0.41301 0.30287l-0.0826-0.0275q-1.3216-0.11013-1.5694-0.11013-2.0375 0-3.1113 0.74341-1.0463 0.74342-1.4593 1.3492-0.52314 0.77095-0.52314 1.8998 0 2.01 1.5144 2.9461 0.24781 0.11013 0.74342 0.35794 0.27534 0.1652 0.27534 0.41301 0 0.46807-0.44054 0.46807h-7.1037q-0.46808 0-0.46808-0.46807 0-0.0826 0.05507-0.19274 1.0738-2.7259 1.0738-8.4804 0-6.3603-0.88108-8.7282-0.05507-0.11013-0.05507-0.19273 0-0.44055 0.46808-0.44055h10.738q0.19274 0 0.38548 0.19274 0.0826 0.11014 0.38547 0.66081 1.0738 2.1752 1.0738 4.6257zm-4.6532-0.93615q0-1.8998-1.652-1.8998-1.1289 0-1.7071 1.4042-0.13767 0.35794-0.13767 2.3404 0 1.2941 0.0826 2.836 3.4142-2.0926 3.4142-4.6808zm10.628-4.1026q0 0.0551-0.02753 0.1652-0.77095 2.3954-0.77095 8.7282 0 1.5694 0.35794 4.6532 0.38548 3.0563 0.38548 4.0475 0 0.44054-0.44054 0.44054h-4.7634q-0.44054 0-0.44054-0.44054 0-0.0826 0.02753-0.19274 0.96369-2.6983 0.96369-8.508 0-6.3603-0.93615-8.7007-0.05507-0.11013-0.05507-0.19273 0-0.46808 0.46808-0.46808h4.7909q0.44054 0 0.44054 0.46808zm13.602 6.5806q0 0.68834-0.30287 1.4042-0.35794 0.79848-0.88108 1.0738-0.13767 0.0826-0.2478 0.0826-0.1652 0-0.33041-0.13767-0.60574-0.49561-1.9549-0.49561-1.0463 0-2.01 0.82602-0.96369 0.79848-1.3492 1.597-0.38548 0.79849-0.38548 2.0926v0.0826q0 2.423 1.6796 2.423 0.60575 0 0.99122-0.63328 0.30287-0.52314 0.30287-1.184 0 0.35794-0.13767-2.0375v-0.0551q-0.02753-0.27534 0.30287-0.41301 0.74342-0.30287 2.2302-0.30287 1.5694 0 1.8723 0.19274 0.19274 0.13767 0.19274 0.38547 0 0.49561-0.05507 1.4868t-0.05507 1.4868q0 0.0275 0 3.3041 0 0.46808-0.44054 0.46808h-11.316q-0.55068 0-0.55068-1.5694 0-1.2115 0.30287-2.6157 0.57821-2.7534 2.065-4.7634 1.2666-1.7346 3.7721-3.5794 0.82602-0.60574 1.0188-0.82601 0.49561-0.52315 0.49561-1.1564 0-1.7071-1.6245-1.7071-0.55068 0-1.0738 0.33041-0.60574 0.41301-0.57821 0.90862 0.02753 0.96368 0.02753 0.74341 0 0.35794-0.41301 0.46808-0.41301 0.11013-1.3767 0.11013-0.82602 0-1.1564-0.38547-0.27534-0.30287-0.33041-1.1564-0.0826-1.0463-0.0826-1.597 0-1.7346 1.3216-1.7346h9.2514q0.44054 0 0.44054 0.46808 0 0.30287-0.13767 0.96369-0.13767 0.66081-0.13767 0.99122 0 0.3304 0.22027 1.3492 0.44054 1.9274 0.44054 3.1113zm13.464 0q0 0.68834-0.30287 1.4042-0.35794 0.79848-0.88108 1.0738-0.13767 0.0826-0.2478 0.0826-0.1652 0-0.33041-0.13767-0.60575-0.49561-1.9549-0.49561-1.0463 0-2.01 0.82602-0.96369 0.79848-1.3492 1.597-0.38548 0.79849-0.38548 2.0926v0.0826q0 2.423 1.6796 2.423 0.60575 0 0.99122-0.63328 0.30287-0.52314 0.30287-1.184 0 0.35794-0.13767-2.0375v-0.0551q-0.02753-0.27534 0.30287-0.41301 0.74342-0.30287 2.2302-0.30287 1.5694 0 1.8723 0.19274 0.19274 0.13767 0.19274 0.38547 0 0.49561-0.05507 1.4868t-0.05507 1.4868q0 0.0275 0 3.3041 0 0.46808-0.44054 0.46808h-11.316q-0.55068 0-0.55068-1.5694 0-1.2115 0.30287-2.6157 0.57821-2.7534 2.065-4.7634 1.2666-1.7346 3.7721-3.5794 0.82602-0.60574 1.0188-0.82601 0.49561-0.52315 0.49561-1.1564 0-1.7071-1.6245-1.7071-0.55068 0-1.0738 0.33041-0.60575 0.41301-0.57821 0.90862 0.02753 0.96368 0.02753 0.74341 0 0.35794-0.41301 0.46808-0.41301 0.11013-1.3767 0.11013-0.82602 0-1.1564-0.38547-0.27534-0.30287-0.33041-1.1564-0.0826-1.0463-0.0826-1.597 0-1.7346 1.3216-1.7346h9.2514q0.44054 0 0.44054 0.46808 0 0.30287-0.13767 0.96369-0.13767 0.66081-0.13767 0.99122 0 0.3304 0.22027 1.3492 0.44054 1.9274 0.44054 3.1113zm15.447 11.014q0 0.44054-0.46808 0.44054h-6.3053q-0.44054 0-0.44054-0.44054 0-0.13767 0.0826-0.27534 1.184-1.8723 1.184-5.0112 0-4.433-1.8998-4.433-1.3216 0-2.01 1.9824-0.52314 1.4318-0.52314 3.0287 0 2.9186 1.3216 4.3504 0.19274 0.1652 0.19274 0.35794 0 0.44054-0.44054 0.44054h-3.9924q-0.35794 0-0.71588-0.63328-0.46808-0.79848-0.46808-2.0375 0-1.2666 0.82602-4.4605 1.4593-5.727 1.4593-8.1776 0-0.82602-0.60575-2.5606-0.05507-0.11014-0.05507-0.19274 0-0.44054 0.46808-0.44054h9.4166q0.44054 0 0.44054 0.44054 0 0.11014-0.05507 0.24781-0.49561 1.1014-0.49561 3.7446 0 2.5882 0.49561 5.8096 0.90862 5.6169 2.4781 7.5168 0.11014 0.13767 0.11014 0.30288zm-6.7183-12.858q0-0.11014-0.11014-0.68835-0.35794-1.7346-1.1289-1.7346-1.4318 0-1.652 3.5794 1.4042-0.49561 2.3954-0.74342 0.49561-0.13767 0.49561-0.413z" stroke-width="2.2945" aria-label="PIZZA"/>
   <circle cx="129.22" cy="60.95" r="1.8284"/>
  </g>
 </g>
</svg>
